HIERARCHY
ROOT Hips
{
	OFFSET 0.000000 100.481300 0.000000
	CHANNELS 6 Xposition Yposition Zposition Xrotation Yrotation Zrotation
	JOINT Spine
	{
		OFFSET -0.279200 12.230698 -2.892100
		CHANNELS 3 Xrotation Yrotation Zrotation
		JOINT Spine1
		{
			OFFSET -0.325700 14.269203 -3.374200
			CHANNELS 3 Xrotation Yrotation Zrotation
			JOINT Spine2
			{
				OFFSET -0.372300 16.307602 -0.352600
				CHANNELS 3 Xrotation Yrotation Zrotation
				JOINT Neck
				{
					OFFSET -0.418800 17.814194 8.416900
					CHANNELS 3 Xrotation Yrotation Zrotation
					JOINT Head
					{
						OFFSET 0.000000 7.031097 3.806800
						CHANNELS 3 Xrotation Yrotation Zrotation
						JOINT HeadTop_End
						{
							OFFSET 0.000000 24.646606 12.978600
							CHANNELS 3 Xrotation Yrotation Zrotation
							End Site
							{
								OFFSET 0.000000 27.854965 0.000000
							}
						}
					}
				}
				JOINT LeftShoulder
				{
					OFFSET 16.952999 14.495407 -7.737500
					CHANNELS 3 Xrotation Yrotation Zrotation
					JOINT LeftArm
					{
						OFFSET 9.308998 -2.777710 0.208600
						CHANNELS 3 Xrotation Yrotation Zrotation
						JOINT LeftForeArm
						{
							OFFSET 29.972298 0.000000 0.000000
							CHANNELS 3 Xrotation Yrotation Zrotation
							JOINT LeftHand
							{
								OFFSET 26.026505 0.000000 0.000000
								CHANNELS 3 Xrotation Yrotation Zrotation
								JOINT LeftHandThumb1
								{
									OFFSET 12.240501 -7.147949 9.207150
									CHANNELS 3 Xrotation Yrotation Zrotation
									JOINT LeftHandThumb2
									{
										OFFSET 4.138618 -2.389435 2.389433
										CHANNELS 3 Xrotation Yrotation Zrotation
										JOINT LeftHandThumb3
										{
											OFFSET 2.726913 -1.574387 1.574386
											CHANNELS 3 Xrotation Yrotation Zrotation
											JOINT LeftHandThumb4
											{
												OFFSET 3.941010 -2.275345 2.275342
												CHANNELS 3 Xrotation Yrotation Zrotation
												End Site
												{
													OFFSET -0.005798 5.087799 0.009903
												}
											}
										}
									}
								}
								JOINT LeftHandIndex1
								{
									OFFSET 24.424698 -1.985611 5.953459
									CHANNELS 3 Xrotation Yrotation Zrotation
									JOINT LeftHandIndex2
									{
										OFFSET 6.426697 0.000000 0.000000
										CHANNELS 3 Xrotation Yrotation Zrotation
										JOINT LeftHandIndex3
										{
											OFFSET 5.337898 0.000000 0.000000
											CHANNELS 3 Xrotation Yrotation Zrotation
											JOINT LeftHandIndex4
											{
												OFFSET 4.409401 0.000000 0.000000
												CHANNELS 3 Xrotation Yrotation Zrotation
												End Site
												{
													OFFSET 0.000000 4.409363 0.014373
												}
											}
										}
									}
								}
								JOINT LeftHandMiddle1
								{
									OFFSET 23.810104 0.000000 0.000000
									CHANNELS 3 Xrotation Yrotation Zrotation
									JOINT LeftHandMiddle2
									{
										OFFSET 7.176498 0.000000 0.000000
										CHANNELS 3 Xrotation Yrotation Zrotation
										JOINT LeftHandMiddle3
										{
											OFFSET 6.774902 0.000000 0.000000
											CHANNELS 3 Xrotation Yrotation Zrotation
											JOINT LeftHandMiddle4
											{
												OFFSET 5.403328 0.000000 0.000000
												CHANNELS 3 Xrotation Yrotation Zrotation
												End Site
												{
													OFFSET -0.027702 5.403244 0.017414
												}
											}
										}
									}
								}
								JOINT LeftHandRing1
								{
									OFFSET 22.908401 -0.839279 -6.020567
									CHANNELS 3 Xrotation Yrotation Zrotation
									JOINT LeftHandRing2
									{
										OFFSET 6.337502 0.000000 0.000000
										CHANNELS 3 Xrotation Yrotation Zrotation
										JOINT LeftHandRing3
										{
											OFFSET 5.779297 0.000000 0.000000
											CHANNELS 3 Xrotation Yrotation Zrotation
											JOINT LeftHandRing4
											{
												OFFSET 4.965698 0.000000 0.000000
												CHANNELS 3 Xrotation Yrotation Zrotation
												End Site
												{
													OFFSET 0.000000 4.965668 0.016186
												}
											}
										}
									}
								}
								JOINT LeftHandPinky1
								{
									OFFSET 20.037003 -1.530319 -10.950146
									CHANNELS 3 Xrotation Yrotation Zrotation
									JOINT LeftHandPinky2
									{
										OFFSET 5.254700 0.000000 0.000000
										CHANNELS 3 Xrotation Yrotation Zrotation
										JOINT LeftHandPinky3
										{
											OFFSET 4.810204 0.000000 0.000000
											CHANNELS 3 Xrotation Yrotation Zrotation
											JOINT LeftHandPinky4
											{
												OFFSET 3.647202 0.000000 0.000000
												CHANNELS 3 Xrotation Yrotation Zrotation
												End Site
												{
													OFFSET 0.000000 3.647186 0.011889
												}
											}
										}
									}
								}
							}
						}
					}
				}
				JOINT RightShoulder
				{
					OFFSET -15.141001 14.495407 -7.737500
					CHANNELS 3 Xrotation Yrotation Zrotation
					JOINT RightArm
					{
						OFFSET -9.308998 -2.777710 0.208500
						CHANNELS 3 Xrotation Yrotation Zrotation
						JOINT RightForeArm
						{
							OFFSET -29.972300 0.000000 0.000000
							CHANNELS 3 Xrotation Yrotation Zrotation
							JOINT RightHand
							{
								OFFSET -26.026505 0.000000 0.000000
								CHANNELS 3 Xrotation Yrotation Zrotation
								JOINT RightHandThumb1
								{
									OFFSET -12.240601 -7.148026 9.207092
									CHANNELS 3 Xrotation Yrotation Zrotation
									JOINT RightHandThumb2
									{
										OFFSET -4.138618 -2.389435 2.389433
										CHANNELS 3 Xrotation Yrotation Zrotation
										JOINT RightHandThumb3
										{
											OFFSET -2.726974 -1.574417 1.574421
											CHANNELS 3 Xrotation Yrotation Zrotation
											JOINT RightHandThumb4
											{
												OFFSET -3.941010 -2.275345 2.275343
												CHANNELS 3 Xrotation Yrotation Zrotation
												End Site
												{
													OFFSET 0.005814 5.087799 0.009927
												}
											}
										}
									}
								}
								JOINT RightHandIndex1
								{
									OFFSET -24.424698 -1.985657 5.953444
									CHANNELS 3 Xrotation Yrotation Zrotation
									JOINT RightHandIndex2
									{
										OFFSET -6.426697 0.000000 0.000000
										CHANNELS 3 Xrotation Yrotation Zrotation
										JOINT RightHandIndex3
										{
											OFFSET -5.337898 0.000000 0.000000
											CHANNELS 3 Xrotation Yrotation Zrotation
											JOINT RightHandIndex4
											{
												OFFSET -4.409401 0.000000 0.000000
												CHANNELS 3 Xrotation Yrotation Zrotation
												End Site
												{
													OFFSET 0.000000 4.409363 0.014408
												}
											}
										}
									}
								}
								JOINT RightHandMiddle1
								{
									OFFSET -23.810097 0.000000 0.000000
									CHANNELS 3 Xrotation Yrotation Zrotation
									JOINT RightHandMiddle2
									{
										OFFSET -7.176498 0.000000 0.000000
										CHANNELS 3 Xrotation Yrotation Zrotation
										JOINT RightHandMiddle3
										{
											OFFSET -6.774902 0.000000 0.000000
											CHANNELS 3 Xrotation Yrotation Zrotation
											JOINT RightHandMiddle4
											{
												OFFSET -5.403328 0.000000 0.000000
												CHANNELS 3 Xrotation Yrotation Zrotation
												End Site
												{
													OFFSET 0.027702 5.403244 0.017457
												}
											}
										}
									}
								}
								JOINT RightHandRing1
								{
									OFFSET -22.908302 -0.839325 -6.020576
									CHANNELS 3 Xrotation Yrotation Zrotation
									JOINT RightHandRing2
									{
										OFFSET -6.337502 0.000000 0.000000
										CHANNELS 3 Xrotation Yrotation Zrotation
										JOINT RightHandRing3
										{
											OFFSET -5.779297 0.000000 0.000000
											CHANNELS 3 Xrotation Yrotation Zrotation
											JOINT RightHandRing4
											{
												OFFSET -4.965698 0.000000 0.000000
												CHANNELS 3 Xrotation Yrotation Zrotation
												End Site
												{
													OFFSET 0.000000 4.965668 0.016226
												}
											}
										}
									}
								}
								JOINT RightHandPinky1
								{
									OFFSET -20.037003 -1.530334 -10.950259
									CHANNELS 3 Xrotation Yrotation Zrotation
									JOINT RightHandPinky2
									{
										OFFSET -5.254700 0.000000 0.000000
										CHANNELS 3 Xrotation Yrotation Zrotation
										JOINT RightHandPinky3
										{
											OFFSET -4.810204 0.000000 0.000000
											CHANNELS 3 Xrotation Yrotation Zrotation
											JOINT RightHandPinky4
											{
												OFFSET -3.647202 0.000000 0.000000
												CHANNELS 3 Xrotation Yrotation Zrotation
												End Site
												{
													OFFSET 0.000000 3.647186 0.011917
												}
											}
										}
									}
								}
							}
						}
					}
				}
			}
		}
	}
	JOINT LeftUpLeg
	{
		OFFSET 15.427100 -6.655098 0.678600
		CHANNELS 3 Xrotation Yrotation Zrotation
		JOINT LeftLeg
		{
			OFFSET 4.081073 -39.591068 13.024000
			CHANNELS 3 Xrotation Yrotation Zrotation
			JOINT LeftFoot
			{
				OFFSET -4.081074 -37.707932 -15.979700
				CHANNELS 3 Xrotation Yrotation Zrotation
				JOINT LeftToeBase
				{
					OFFSET 5.346399 -15.068900 20.645000
					CHANNELS 3 Xrotation Yrotation Zrotation
					JOINT LeftToe_End
					{
						OFFSET 2.754700 0.931300 11.300900
						CHANNELS 3 Xrotation Yrotation Zrotation
						End Site
						{
							OFFSET 0.000000 11.669021 0.000000
						}
					}
				}
			}
		}
	}
	JOINT RightUpLeg
	{
		OFFSET -15.569500 -6.655098 0.678600
		CHANNELS 3 Xrotation Yrotation Zrotation
		JOINT RightLeg
		{
			OFFSET -4.081825 -39.591045 13.023800
			CHANNELS 3 Xrotation Yrotation Zrotation
			JOINT RightFoot
			{
				OFFSET 4.081824 -37.707954 -15.979600
				CHANNELS 3 Xrotation Yrotation Zrotation
				JOINT RightToeBase
				{
					OFFSET -5.346400 -15.068900 20.645000
					CHANNELS 3 Xrotation Yrotation Zrotation
					JOINT RightToe_End
					{
						OFFSET -2.754700 0.931300 11.300900
						CHANNELS 3 Xrotation Yrotation Zrotation
						End Site
						{
							OFFSET 0.000000 11.669021 0.000000
						}
					}
				}
			}
		}
	}
}
MOTION
Frames: 4
Frame Time: 0.033333
6.457615 124.236679 7.220759 -5.093215 -5.530203 2.558383 16.958549 6.808210 3.681062 31.330395 11.070460 -4.989698 31.477839 10.395142 -5.524544 -1.862347 -4.064830 -0.006614 -34.012809 -19.884455 -5.393851 0.000001 0.000000 -0.000000 0.763500 6.575678 -11.941247 -14.228600 1.877382 -65.907822 -0.000011 -49.628486 -0.000004 0.897669 -15.594223 -15.340479 13.827855 6.834677 -4.397612 5.568748 20.518973 4.617242 0.418489 7.799953 4.649696 -0.000000 0.000000 0.000004 0.422762 2.379810 -20.143737 0.268386 1.907296 -16.018219 0.067401 0.963041 -8.006879 0.000000 -0.000000 -0.000001 0.422095 2.378003 -20.127724 0.268918 1.909150 -16.034219 0.067402 0.963038 -8.006866 -0.000001 0.000000 0.000001 0.422762 2.379810 -20.143737 0.268386 1.907297 -16.018219 0.067400 0.963041 -8.006881 0.000001 0.000000 0.000002 1.809066 6.191228 -19.736962 0.267347 -2.149377 -16.509383 0.067399 0.963040 -8.006868 -0.000000 0.000000 -0.000002 0.719929 3.728974 11.207539 -68.484852 21.452236 79.342776 -0.000000 9.793673 -0.000029 18.306092 -28.227789 -8.614791 -1.849253 -3.581798 -6.586142 4.637200 -8.634116 -0.225400 -1.273769 0.137312 -2.094869 -0.000000 -0.000004 -0.000001 -0.000001 0.000000 -0.000000 -0.000005 -0.000001 -0.000008 0.000002 -0.000000 -0.000001 0.000001 0.000000 0.000000 0.000000 0.000000 -0.000000 -0.000005 -0.000001 -0.000008 -0.000000 -0.000000 -0.000000 -0.000001 -0.000000 -0.000000 0.000001 -0.000006 -0.000004 -0.000009 0.000006 -0.000005 -0.000001 0.000001 -0.000000 -0.000003 0.000000 0.000000 -0.000001 0.000000 -0.000000 0.000001 -0.000002 0.000011 0.000004 -0.000001 -0.000001 0.000005 -0.000000 -0.000001 -106.747824 -4.305504 16.439412 119.869192 5.000175 10.688169 -3.747797 -0.132315 -12.205759 -0.001798 0.000009 -0.000002 0.000000 -0.000001 0.000000 -30.923579 10.995072 -134.574780 49.384894 55.378740 93.195684 63.529550 6.501145 -21.418063 0.004098 -0.000002 -0.000003 -0.000001 0.000000 0.000001 
6.414511 124.277718 7.245529 -4.986564 -5.521936 2.578984 16.938886 6.812250 3.577895 31.316267 10.996575 -5.001465 31.452550 10.364510 -5.510589 -1.921943 -4.094617 0.237200 -33.742801 -19.922250 -5.417050 -0.000003 -0.000000 -0.000000 0.643322 5.995405 -10.727843 -14.012567 2.843431 -66.933484 0.000009 -49.267360 0.000014 1.159243 -16.015677 -15.032521 13.827855 6.834676 -4.397612 5.568748 20.518973 4.617245 0.418490 7.799956 4.649694 0.000001 -0.000003 0.000000 0.422763 2.379813 -20.143761 0.268385 1.907296 -16.018221 0.067400 0.963041 -8.006878 -0.000001 0.000000 -0.000002 0.422099 2.378001 -20.127732 0.268919 1.909150 -16.034219 0.067401 0.963038 -8.006870 -0.000001 -0.000000 0.000002 0.422763 2.379813 -20.143763 0.268386 1.907297 -16.018221 0.067400 0.963041 -8.006880 0.000001 0.000000 0.000001 1.809065 6.191227 -19.736979 0.267348 -2.149377 -16.509385 0.067399 0.963040 -8.006868 -0.000001 -0.000000 0.000001 0.719620 3.625493 11.389728 -68.369169 21.430724 79.353527 -0.000001 9.984902 -0.000001 19.194645 -27.897962 -7.614612 -1.849261 -3.581798 -6.586136 4.637194 -8.634122 -0.225402 -1.273777 0.137309 -2.094872 0.000000 -0.000002 0.000000 0.000004 0.000000 -0.000001 0.000001 0.000000 -0.000000 0.000000 -0.000001 -0.000001 0.000004 -0.000000 -0.000000 0.000004 0.000000 -0.000001 0.000001 0.000000 -0.000001 0.000000 -0.000005 -0.000003 0.000004 -0.000001 0.000000 0.000003 -0.000009 -0.000004 -0.000000 0.000010 0.000005 0.000003 0.000000 -0.000000 0.000004 0.000000 -0.000001 0.000004 0.000000 -0.000001 0.000002 0.000000 -0.000000 0.000003 -0.000001 -0.000000 0.000004 -0.000000 -0.000000 -106.722402 -4.109184 16.323671 119.923437 5.125514 10.750685 -4.377864 -0.124810 -11.851404 -0.001781 0.000004 0.000003 -0.000000 0.000000 0.000000 -30.580024 11.209499 -133.974625 50.277395 55.564999 92.142735 62.691465 6.751785 -20.984243 0.004057 0.000003 -0.000016 -0.000001 0.000001 0.000000 
6.422749 124.285774 7.303478 -4.867886 -5.516143 2.589936 16.865783 6.812453 3.546413 31.219097 10.944472 -5.007663 31.350596 10.333967 -5.506364 -1.777924 -4.115792 0.367765 -33.629871 -19.946285 -5.476002 0.000002 -0.000000 0.000000 0.538729 5.368993 -9.487934 -13.666385 3.641503 -67.890345 0.000025 -48.671532 0.000017 1.174180 -16.406668 -14.263685 13.827855 6.834677 -4.397611 5.568747 20.518971 4.617250 0.418488 7.799951 4.649698 -0.000001 0.000003 0.000000 0.422761 2.379814 -20.143744 0.268385 1.907296 -16.018218 0.067400 0.963041 -8.006877 -0.000001 0.000000 -0.000001 0.422098 2.378005 -20.127729 0.268920 1.909150 -16.034219 0.067403 0.963039 -8.006870 0.000000 -0.000000 -0.000002 0.422761 2.379814 -20.143746 0.268385 1.907297 -16.018218 0.067399 0.963041 -8.006879 0.000000 -0.000000 0.000000 1.809070 6.191225 -19.736969 0.267346 -2.149377 -16.509389 0.067400 0.963040 -8.006866 -0.000000 -0.000000 0.000001 0.717068 3.504639 11.564649 -68.072158 21.291568 79.367754 -0.000005 10.300024 -0.000000 20.134969 -27.477299 -7.167630 -1.849258 -3.581785 -6.586128 4.637199 -8.634119 -0.225402 -1.273769 0.137310 -2.094869 -0.000001 -0.000002 0.000001 0.000004 -0.000005 0.000001 -0.000001 -0.000001 0.000002 0.000001 -0.000003 0.000002 0.000003 0.000000 -0.000001 0.000005 -0.000005 0.000001 -0.000001 -0.000010 0.000005 -0.000008 -0.000009 -0.000004 -0.000004 -0.000000 -0.000000 0.000004 -0.000003 0.000004 -0.000006 -0.000001 0.000011 0.000002 -0.000003 0.000001 0.000002 0.000001 -0.000001 0.000004 -0.000005 0.000001 0.000004 -0.000003 0.000012 0.000005 -0.000005 0.000003 0.000000 0.000000 -0.000002 -106.614315 -4.068285 16.188161 120.050888 5.221414 10.788828 -5.005026 -0.062295 -11.854575 -0.001794 -0.000013 -0.000000 0.000000 0.000001 -0.000000 -30.415085 12.488524 -132.152836 52.646634 56.101200 89.353348 61.146278 6.990722 -19.972112 0.004074 0.000011 -0.000024 0.000001 -0.000002 0.000002 
6.461907 124.263023 7.372074 -4.498452 -5.299155 2.645607 16.700067 6.814601 3.577426 30.938039 10.827827 -4.959386 31.063273 10.239270 -5.466160 -1.578148 -4.127438 0.517875 -33.859669 -19.974451 -5.460459 -0.000001 0.000000 -0.000000 0.456165 4.675632 -8.097346 -13.308788 4.580615 -68.909608 0.000001 -47.966076 -0.000001 1.142333 -16.587736 -13.595355 13.827855 6.834676 -4.397612 5.568747 20.518973 4.617247 0.418487 7.799955 4.649699 -0.000001 0.000001 -0.000000 0.422765 2.379813 -20.143748 0.268385 1.907297 -16.018218 0.067400 0.963041 -8.006878 0.000000 0.000001 -0.000000 0.422099 2.378001 -20.127732 0.268920 1.909150 -16.034219 0.067401 0.963039 -8.006866 -0.000002 0.000000 -0.000001 0.422765 2.379813 -20.143748 0.268385 1.907297 -16.018218 0.067399 0.963041 -8.006877 -0.000000 0.000000 -0.000001 1.809069 6.191229 -19.736988 0.267347 -2.149377 -16.509387 0.067399 0.963040 -8.006871 -0.000001 0.000000 -0.000002 0.712696 3.289909 11.720967 -67.504754 20.953970 79.429055 0.000005 10.811717 -0.000007 21.110392 -27.070039 -7.724969 -1.849251 -3.581788 -6.586137 4.637203 -8.634120 -0.225401 -1.273772 0.137310 -2.094872 -0.000001 0.000001 0.000001 -0.000002 -0.000001 -0.000000 -0.000003 0.000000 -0.000000 -0.000002 0.000000 -0.000000 -0.000002 0.000000 0.000000 -0.000001 -0.000001 -0.000000 0.000001 0.000005 0.000016 0.000000 0.000000 0.000001 -0.000003 0.000000 0.000000 -0.000002 -0.000000 -0.000004 -0.000001 -0.000001 0.000004 0.000001 -0.000000 -0.000000 0.000001 -0.000000 0.000000 -0.000002 -0.000001 -0.000000 -0.000002 -0.000001 -0.000000 -0.000004 -0.000000 -0.000000 0.000002 0.000000 -0.000000 -106.819036 -4.218263 15.864976 120.163873 5.226481 10.773316 -5.517520 -0.000062 -12.225722 -0.001804 -0.000005 0.000001 -0.000000 -0.000001 0.000000 -30.574017 14.064026 -129.877181 55.790447 56.709432 85.614686 59.285673 7.294701 -18.636436 0.004084 0.000013 -0.000003 0.000002 0.000001 -0.000001 
